<?xml version="1.0" encoding="UTF-8"?>
<svg width="929px" height="688px" viewBox="0 0 929 688" version="1.1" xmlns="http://www.w3.org/2000/svg" xmlns:xlink="http://www.w3.org/1999/xlink">
    <title>signature</title>
    <g id="Page-1" stroke="none" stroke-width="1" fill="none" fill-rule="evenodd" fill-opacity="0.85">
        <g id="signature" transform="translate(0, -115)" fill="#FFFFFF">
            <path d="M38.3301,434.326 L79.7119,475.521 L121.094,434.326 C128.174,427.49 138.916,427.246 146.24,434.326 C153.32,441.65 153.32,452.393 146.24,459.473 L104.916,500.61 L146.24,541.748 C153.32,548.584 153.32,559.57 146.24,566.895 C138.916,573.975 128.174,573.975 121.094,566.895 L79.7119,525.7 L38.3301,566.895 C31.25,573.73 20.5078,573.975 13.1836,566.895 C6.10352,559.57 6.10352,548.828 13.1836,541.748 L54.5083,500.61 L13.1836,459.473 C6.10352,452.637 6.10352,441.65 13.1836,434.326 C20.5078,427.246 31.25,427.246 38.3301,434.326 Z" id="Path"></path>
            <path d="M230.829,684.814 L21.7285,684.814 C9.76562,684.814 0,675.049 0,663.086 C0,651.367 9.76562,641.602 21.7285,641.602 L244.533,641.602 C238.047,656.488 233.381,671.048 230.829,684.814 Z M424.112,684.814 L272.398,684.814 C275.112,671.376 280.343,656.747 287.883,641.602 L445.487,641.602 C439.088,657.3 431.947,671.794 424.112,684.814 Z M928.223,663.086 C928.223,675.049 918.457,684.814 906.494,684.814 L470.939,684.814 C478.08,671.532 484.409,656.997 490.068,641.602 L906.494,641.602 C918.457,641.602 928.223,651.367 928.223,663.086 Z" id="Shape" fill-rule="nonzero"></path>
            <path d="M311.035,802.979 C438.965,802.979 523.682,640.625 523.682,433.594 C523.682,256.104 444.336,115.967 320.312,115.967 C241.455,115.967 180.176,183.105 180.176,269.287 C180.176,392.334 278.076,497.803 400.146,552.49 C403.809,554.443 406.982,554.932 410.4,554.932 C421.387,554.932 429.443,546.387 429.443,537.109 C429.443,530.273 426.025,523.926 417.969,519.775 C336.182,480.957 221.68,394.043 221.68,269.287 C221.68,206.055 264.648,157.227 320.312,157.227 C419.189,157.227 482.178,281.982 482.178,433.594 C482.178,612.793 411.865,761.719 315.918,761.719 C283.691,761.719 268.799,740.723 268.799,711.67 C268.799,620.85 401.123,447.51 586.914,447.51 C600.586,447.51 608.154,452.881 608.154,462.402 C608.154,488.77 592.285,512.939 592.285,540.283 C592.285,562.988 608.643,575.684 629.395,575.684 C691.162,575.684 767.334,464.844 794.434,464.844 C820.068,464.844 788.33,564.209 864.014,564.209 C876.465,564.209 891.846,560.791 904.785,552.734 C911.377,548.34 916.016,541.748 916.016,533.447 C916.016,523.193 909.18,514.648 898.438,514.648 C888.672,514.648 879.15,523.682 867.676,523.682 C831.787,523.682 866.699,419.189 805.908,419.189 C752.686,419.189 669.434,527.832 644.287,527.832 C640.869,527.832 638.428,526.123 638.428,521.484 C638.428,507.08 653.809,480.469 653.809,455.078 C653.809,424.805 629.395,406.25 589.844,406.25 C380.371,406.25 226.562,602.539 226.562,718.994 C226.562,768.066 254.883,802.979 311.035,802.979 Z" id="Path"></path>
        </g>
    </g>
</svg>